# xmcd
#
# Track frame offsets: 
#        150
#        17470
#        46530
#        80030
#        107715
#
# Disc length: 1827 seconds
#
# Revision: 2
# Processed by: cddbd v1.5.2PL0 Copyright (c) Steve Scherf et al.
# Submitted via: ExactAudioCopy v0.99pb4
#
DISCID=2d072105
DTITLE=Happy Nation - Girls Just Wanna Have Fun [CD Single)
DYEAR=1998
DGENRE=Electronic, House - House, Euro House
TTITLE0=Girls Just Wanna Have Fun (P'N'D Radio Remix)
TTITLE1=Girls Just Wanna Have Fun (Dirty Rotten Scoundrels Ready To Pl
TTITLE1=uck Mix)
TTITLE2=Girls Just Wanna Have Fun (Graham Gold Remix)
TTITLE3=Girls Just Wanna Have Fun (PF Project's Stars and Stripes Mix)
TTITLE4=Girls Just Wanna Have Fun (P'N'D Extended Remix)
EXTD=
EXTT0=
EXTT1=
EXTT2=
EXTT3=
EXTT4=
PLAYORDER=
